<?xml version="1.0" encoding="UTF-8"?>
<!-- Originaler RECOLORO-Wortschriftzug, direkt aus Final.svg abgeleitet. -->
<svg xmlns="http://www.w3.org/2000/svg" viewBox="0 0 733.6 92.56" role="img" aria-label="RECOLORO" style="color:#0F46D4">
  <g fill="currentColor">
    <path d="M48.53,58.05c10.97-4.63,17.19-14.28,17.19-26.98,0-9.25-3.04-16.79-9.26-22.48-6.08-5.68-14.28-8.59-24.59-8.59H0v92.56h17.32v-31.47h15.34l20.63,31.47h18.38l-23.14-34.51ZM30.94,46.15h-13.62v-30.15h13.62c10.98,0,17.46,4.88,17.46,15.07s-6.48,15.08-17.46,15.08Z"/>
    <polygon points="104.85 76.56 145.19 76.56 145.19 92.56 87.53 92.56 87.53 0 144 0 144 16 104.85 16 104.85 38.21 134.61 38.21 134.61 53.82 104.85 53.82 104.85 76.56"/>
    <path d="M230.08,70.48l10.44,12.17c-8.59,7.53-19.04,11.24-31.47,11.24-13.09,0-24.33-4.5-33.85-13.49-9.39-9.13-14.15-20.5-14.15-34.12s4.76-24.99,14.15-33.98C184.68,3.17,195.92-1.32,209.01-1.32c12.17,0,22.48,3.7,30.94,10.97l-10.44,11.9c-5.95-4.36-12.43-6.61-19.44-6.61-8.73,0-16.13,3.04-22.08,8.99-5.96,5.95-9,13.36-9,22.35s3.04,16.53,9,22.48c5.95,5.95,13.35,8.86,22.08,8.86,7.4,0,14.02-2.38,19.97-7.14Z"/>
    <path d="M336.65,12.16c-9.39-8.99-20.63-13.48-33.72-13.48s-24.33,4.49-33.72,13.48c-9.39,8.86-14.15,20.24-14.15,34.12s4.76,25.26,14.15,34.25c9.39,8.86,20.63,13.36,33.72,13.36s24.33-4.5,33.72-13.36c9.39-8.99,14.15-20.37,14.15-34.25s-4.76-25.26-14.15-34.12ZM323.96,68.76c-5.82,5.95-12.83,8.86-21.03,8.86s-15.34-2.91-21.15-8.86c-5.82-5.95-8.73-13.36-8.73-22.48s2.91-16.53,8.73-22.48c5.81-5.95,12.82-8.86,21.15-8.86s15.21,2.91,21.03,8.86,8.73,13.36,8.73,22.48-2.91,16.53-8.73,22.48Z"/>
    <polygon points="385.97 76.56 423.53 76.56 423.53 92.56 368.65 92.56 368.65 0 385.97 0 385.97 76.56"/>
    <path d="M520.32,12.16c-9.39-8.99-20.63-13.48-33.72-13.48s-24.33,4.49-33.72,13.48c-9.39,8.86-14.15,20.24-14.15,34.12s4.76,25.26,14.15,34.25c9.39,8.86,20.63,13.36,33.72,13.36s24.33-4.5,33.72-13.36c9.39-8.99,14.15-20.37,14.15-34.25s-4.76-25.26-14.15-34.12ZM507.62,68.76c-5.81,5.95-12.82,8.86-21.02,8.86s-15.34-2.91-21.16-8.86c-5.82-5.95-8.73-13.36-8.73-22.48s2.91-16.53,8.73-22.48,12.83-8.86,21.16-8.86,15.21,2.91,21.02,8.86c5.82,5.95,8.73,13.36,8.73,22.48s-2.91,16.53-8.73,22.48Z"/>
    <path d="M600.84,58.05c10.98-4.63,17.19-14.28,17.19-26.98,0-9.25-3.04-16.79-9.25-22.48-6.09-5.68-14.28-8.59-24.6-8.59h-31.87v92.56h17.33v-31.47h15.33l20.63,31.47h18.38l-23.14-34.51ZM583.26,46.15h-13.62v-30.15h13.62c10.97,0,17.45,5.02,17.45,15.07s-6.48,15.08-17.45,15.08Z"/>
    <path d="M719.45,12.16c-9.39-8.99-20.63-13.48-33.72-13.48s-24.33,4.49-33.72,13.48c-9.39,8.86-14.15,20.24-14.15,34.12s4.76,25.26,14.15,34.25c9.39,8.86,20.63,13.36,33.72,13.36s24.33-4.5,33.72-13.36c9.39-8.99,14.15-20.37,14.15-34.25s-4.76-25.26-14.15-34.12ZM706.76,68.76c-5.82,5.95-12.83,8.86-21.03,8.86s-15.34-2.91-21.16-8.86c-5.81-5.95-8.72-13.36-8.72-22.48s2.91-16.53,8.72-22.48c5.82-5.95,12.83-8.86,21.16-8.86s15.21,2.91,21.03,8.86,8.73,13.36,8.73,22.48-2.91,16.53-8.73,22.48Z"/>
  </g>
</svg>
